<svg xmlns="http://www.w3.org/2000/svg" width="117.613" height="117.612" viewBox="0 0 117.613 117.612">
  <g>
    <path d="M84.622,78.871c-15.474-9.454-34.634-11.662-56.945-6.562a4.368,4.368,0,1,0,1.945,8.516c20.012-4.571,36.985-2.72,50.443,5.507a4.342,4.342,0,0,0,2.271.643,4.381,4.381,0,0,0,3.736-2.1,4.371,4.371,0,0,0-1.45-6.008Zm.17,5.226h0a2.866,2.866,0,0,1-3.944.955c-8.905-5.442-19.282-8.17-31.006-8.17a92.475,92.475,0,0,0-20.555,2.481,2.868,2.868,0,1,1-1.276-5.592c21.918-5.009,40.7-2.864,55.829,6.38a2.871,2.871,0,0,1,.952,3.946Z"/>
    <path d="M101.908,46.022a6.14,6.14,0,0,0-2.834-3.788C77.353,29.339,43,28.122,22.331,34.4a6.18,6.18,0,0,0,3.588,11.828c17.715-5.378,48.31-4.369,66.847,6.64a6.12,6.12,0,0,0,3.141.869,6.245,6.245,0,0,0,1.535-.193,6.182,6.182,0,0,0,4.466-7.517Zm-1.964,3.915a4.68,4.68,0,0,1-6.411,1.637h0c-11.72-6.959-28.153-10-43.246-10a88.215,88.215,0,0,0-24.8,3.214,4.679,4.679,0,1,1-2.716-8.956c20.353-6.179,54.174-4.991,75.542,7.693a4.679,4.679,0,0,1,1.635,6.413Z"/>
    <path d="M58.807,0a58.806,58.806,0,1,0,58.806,58.806A58.872,58.872,0,0,0,58.807,0Zm0,116.112a57.306,57.306,0,1,1,57.306-57.306A57.371,57.371,0,0,1,58.807,116.112Z"/>
    <path d="M91.439,61.817C73.348,50.7,46.893,47.567,25.609,54.026a5.276,5.276,0,1,0,3.068,10.1c18.274-5.547,41.812-2.8,57.24,6.686a5.231,5.231,0,0,0,2.748.778,5.291,5.291,0,0,0,4.509-2.513h0A5.281,5.281,0,0,0,91.439,61.817Zm.458,6.469a3.784,3.784,0,0,1-5.2,1.244c-10.324-6.345-24.195-9.743-37.778-9.743a71.76,71.76,0,0,0-20.682,2.9,3.776,3.776,0,1,1-2.2-7.225c20.9-6.342,46.859-3.273,64.607,7.634A3.779,3.779,0,0,1,91.9,68.286Z"/>
  </g>
</svg>
