<svg xmlns="http://www.w3.org/2000/svg" width="96.769" height="86.311" viewBox="0 0 96.769 86.311">
  <g>
    <path d="M94.588,20.664A9.062,9.062,0,0,0,87.7,17.492H36.967a.75.75,0,0,0,0,1.5H87.7a7.575,7.575,0,0,1,7.491,8.69L88.848,55.948a7.534,7.534,0,0,1-7.482,6.406H38.373a7.546,7.546,0,0,1-7.489-6.439l-9.7-47.9A9.484,9.484,0,0,0,11.784,0H.75a.75.75,0,0,0,0,1.5H11.784A8,8,0,0,1,19.71,8.278l9.7,47.9a9.028,9.028,0,0,0,8.965,7.674H81.366a9.011,9.011,0,0,0,8.955-7.626L96.66,27.962A9.064,9.064,0,0,0,94.588,20.664Z"/>
    <path d="M81.745,75.435a5.438,5.438,0,1,0,5.438,5.438A5.444,5.444,0,0,0,81.745,75.435Zm0,9.376a3.938,3.938,0,1,1,3.938-3.938A3.942,3.942,0,0,1,81.745,84.811Z"/>
    <path d="M38.028,75.435a5.438,5.438,0,1,0,5.438,5.438A5.444,5.444,0,0,0,38.028,75.435Zm0,9.376a3.938,3.938,0,1,1,3.938-3.938A3.942,3.942,0,0,1,38.028,84.811Z"/>
  </g>
</svg>
