<svg xmlns="http://www.w3.org/2000/svg" width="97.755" height="97.754" viewBox="0 0 97.755 97.754">
  <g>
    <path d="M84.644,0H13.112A13.127,13.127,0,0,0,0,13.112V84.643A13.126,13.126,0,0,0,13.112,97.754H84.644A13.126,13.126,0,0,0,97.755,84.643V13.112A13.127,13.127,0,0,0,84.644,0ZM96.255,84.643A11.625,11.625,0,0,1,84.644,96.254H13.112A11.625,11.625,0,0,1,1.5,84.643V13.112A11.625,11.625,0,0,1,13.112,1.5H84.644A11.625,11.625,0,0,1,96.255,13.112Z"/>
    <path d="M81.386,22.829a3.1,3.1,0,0,0-3.282.334L59.255,37.755a11.933,11.933,0,0,0-4.6,9.372V74.862a5.994,5.994,0,0,1-4.238,5.85,5.581,5.581,0,0,1-4.9-.964,5.7,5.7,0,0,1,3.411-10.292.75.75,0,1,0,0-1.5,7.2,7.2,0,0,0-4.319,12.986,7.131,7.131,0,0,0,4.321,1.475,7.058,7.058,0,0,0,1.893-.259,7.5,7.5,0,0,0,5.336-7.3V47.127a10.423,10.423,0,0,1,4.015-8.186L79.021,24.349a1.619,1.619,0,0,1,2.611,1.28V55.09a5.7,5.7,0,0,1-1.707,4.082,5.613,5.613,0,0,1-4.106,1.649,5.841,5.841,0,0,1-5.65-5.649A5.731,5.731,0,0,1,75.9,49.358a.75.75,0,0,0,0-1.5,7.232,7.232,0,0,0-7.231,7.334A7.281,7.281,0,0,0,75.8,62.321a7.23,7.23,0,0,0,7.334-7.231V25.629A3.1,3.1,0,0,0,81.386,22.829Z"/>
    <path d="M53.663,17.886a1.589,1.589,0,0,1,.906,1.454V32.667a.75.75,0,0,0,1.5,0V19.34a3.119,3.119,0,0,0-5.028-2.467L32.192,31.466a11.934,11.934,0,0,0-4.6,9.372V63.092a5.994,5.994,0,0,1-4.239,5.85,5.579,5.579,0,0,1-4.9-.965,5.7,5.7,0,0,1,3.411-10.292.75.75,0,1,0,0-1.5,7.2,7.2,0,0,0-4.318,12.986,7.058,7.058,0,0,0,6.214,1.217,7.5,7.5,0,0,0,5.336-7.3V40.838a10.425,10.425,0,0,1,4.014-8.186L51.959,18.059A1.586,1.586,0,0,1,53.663,17.886Z"/>
  </g>
</svg>
