<svg xmlns="http://www.w3.org/2000/svg" width="97.754" height="97.754" viewBox="0 0 97.754 97.754">
  <path d="M14.333,82.6a7.052,7.052,0,0,0,7.044,7.044H31.633a7.047,7.047,0,0,0,6.287-3.883,6.979,6.979,0,0,1-.75-3.007,5.547,5.547,0,0,1-5.537,5.39H21.377A5.55,5.55,0,0,1,15.833,82.6c-.017-11.192-.039-31.655-.012-35.709l.012-9.979a5.55,5.55,0,0,1,5.544-5.545h9.852v-1.5H21.377a7.052,7.052,0,0,0-7.044,7.045v9.229h.076C14.28,47.65,14.29,53.931,14.333,82.6Z"/>
  <path d="M38.662,64.209V82.6c0,.052.007.1.008.154,0-.052.008-.1.008-.154V64.093h-.039A.744.744,0,0,1,38.662,64.209Z"/>
  <path d="M37.186,64.093h-.008v.039A.27.27,0,0,1,37.186,64.093Z"/>
  <rect x="45.245" y="29.869" width="8.655" height="1.5"/>
  <path d="M37.178,64.132a.7.7,0,0,0-.016.077V82.6c0,.052.007.1.008.154,0-.051.008-.1.008-.154Z"/>
  <path d="M54.463,88.147H44.207a5.547,5.547,0,0,1-5.537-5.39,6.993,6.993,0,0,1-.75,3.007,7.047,7.047,0,0,0,6.287,3.883H54.463a7.048,7.048,0,0,0,6.267-3.842,6.977,6.977,0,0,1-.75-2.658A5.552,5.552,0,0,1,54.463,88.147Z"/>
  <path d="M61.452,82.327V82.6c0,.184.01.365.028.545.014-.18.027-.36.027-.544A.746.746,0,0,0,61.452,82.327Z"/>
  <path d="M38.662,82.6V64.209a.744.744,0,0,0-.023-.116H37.186a.27.27,0,0,0-.008.039V82.6c0,.052-.007.1-.008.154a6.979,6.979,0,0,0,.75,3.007,6.993,6.993,0,0,0,.75-3.007C38.669,82.706,38.662,82.655,38.662,82.6Z"/>
  <path d="M77.252,31.369A5.551,5.551,0,0,1,82.8,36.914V82.6a5.55,5.55,0,0,1-5.545,5.544H67a5.551,5.551,0,0,1-5.517-5,6.982,6.982,0,0,1-.75,2.658A7.046,7.046,0,0,0,67,89.647H77.252A7.052,7.052,0,0,0,84.3,82.6V36.914a7.052,7.052,0,0,0-7.045-7.045H67.916v1.5Z"/>
  <path d="M59.98,83.147c.017-.179.027-.36.027-.544a.749.749,0,0,1,1.445-.276c0-1.3-.013-7.3-.02-18.234h-1.5c.008,12.446.02,18.51.02,18.51C59.952,82.787,59.966,82.967,59.98,83.147Z"/>
  <path d="M61.452,82.6v-.275a.749.749,0,0,0-1.445.276c0,.184-.01.365-.027.544a6.977,6.977,0,0,0,.75,2.658,6.982,6.982,0,0,0,.75-2.658C61.462,82.967,61.452,82.786,61.452,82.6Z"/>
  <path d="M55.213,30.619a.75.75,0,0,1-.75.75H53.9v7.755h.07c-.1,1.169-.093,5.242-.07,20.771a4.2,4.2,0,0,0,4.2,4.2h1.834v-.377a.751.751,0,0,1,.75-.751h0a.75.75,0,0,1,.75.75v.378h2.285a4.2,4.2,0,0,0,4.2-4.2V31.369H67a.75.75,0,0,1,0-1.5H54.463A.75.75,0,0,1,55.213,30.619Zm-.563,8.505h0Zm.742.75.008-8.505H66.416V59.9a2.7,2.7,0,0,1-2.7,2.7H58.1a2.7,2.7,0,0,1-2.7-2.7C55.393,54.949,55.379,42.931,55.392,39.874Z"/>
  <path d="M54.463,31.369a.75.75,0,0,0,0-1.5H53.9v1.5Z"/>
  <path d="M66.247,30.619a.75.75,0,0,0,.75.75h.919v-1.5H67A.75.75,0,0,0,66.247,30.619Z"/>
  <path d="M61.432,63.715a.75.75,0,0,0-.75-.75h0a.751.751,0,0,0-.75.751v.377h1.5Z"/>
  <path d="M32.383,30.619a.75.75,0,0,1-.75.75h-.4v7.755h.07c-.1,1.169-.092,5.242-.07,20.771a4.2,4.2,0,0,0,4.2,4.2h1.751v-.445a.75.75,0,1,1,1.5,0v.445h2.368a4.2,4.2,0,0,0,4.2-4.2V31.369H44.207a.75.75,0,1,1,0-1.5H31.633A.75.75,0,0,1,32.383,30.619Zm-.4,8.505h0Zm.742.75.008-8.505H43.745V59.9a2.7,2.7,0,0,1-2.7,2.7H35.427a2.7,2.7,0,0,1-2.7-2.7C32.722,54.949,32.708,42.931,32.721,39.874Z"/>
  <path d="M31.633,31.369a.75.75,0,0,0,0-1.5h-.4v1.5Z"/>
  <path d="M37.912,63.459a.742.742,0,0,1,.727.634h.039v-.445a.75.75,0,1,0-1.5,0v.445h.008A.74.74,0,0,1,37.912,63.459Z"/>
  <path d="M43.457,30.619a.75.75,0,0,0,.75.75h1.038v-1.5H44.207A.75.75,0,0,0,43.457,30.619Z"/>
  <path d="M37.912,63.459a.74.74,0,0,0-.726.634h1.453A.742.742,0,0,0,37.912,63.459Z"/>
  <path d="M84.643,97.754A13.125,13.125,0,0,0,97.754,84.643V13.111A13.126,13.126,0,0,0,84.643,0H13.111A13.126,13.126,0,0,0,0,13.111V84.643A13.126,13.126,0,0,0,13.111,97.754ZM1.5,84.643V13.111A11.625,11.625,0,0,1,13.111,1.5H84.643A11.625,11.625,0,0,1,96.254,13.111V84.643A11.625,11.625,0,0,1,84.643,96.254H13.111A11.625,11.625,0,0,1,1.5,84.643Z"/>
  <path d="M19.311,24.115H46.582a4.349,4.349,0,0,0,4.344-4.344V12.145A4.349,4.349,0,0,0,46.582,7.8H19.311a4.35,4.35,0,0,0-4.345,4.344v7.626A4.349,4.349,0,0,0,19.311,24.115ZM16.13,12.376c.119,0,.221.018.336.023v-.254A2.848,2.848,0,0,1,19.311,9.3H46.582a2.847,2.847,0,0,1,2.844,2.844V18.3a6.51,6.51,0,0,0,.969.074v1.5a7.868,7.868,0,0,1-.973-.067,2.845,2.845,0,0,1-2.84,2.806H19.311a2.848,2.848,0,0,1-2.845-2.844V13.9c-.114-.006-.216-.022-.336-.022Z"/>
  <path d="M61.316,21.378a5.438,5.438,0,1,0-5.438-5.438A5.444,5.444,0,0,0,61.316,21.378Zm0-10.125a4.688,4.688,0,1,1-4.688,4.688A4.688,4.688,0,0,1,61.316,11.253Z"/>
  <path d="M61.316,20.628a4.688,4.688,0,1,0-4.688-4.687A4.687,4.687,0,0,0,61.316,20.628Zm0-8.626a3.938,3.938,0,1,1-3.938,3.938A3.943,3.943,0,0,1,61.316,12Z"/>
  <path d="M77.229,21.378a5.438,5.438,0,1,0-5.437-5.438A5.444,5.444,0,0,0,77.229,21.378Zm0-10.125a4.688,4.688,0,1,1-4.687,4.688A4.688,4.688,0,0,1,77.229,11.253Z"/>
  <path d="M77.229,20.628a4.688,4.688,0,1,0-4.687-4.687A4.687,4.687,0,0,0,77.229,20.628Zm0-8.626a3.938,3.938,0,1,1-3.937,3.938A3.942,3.942,0,0,1,77.229,12Z"/>
  <path d="M21.3,16.643c1.442,1.515,3.076,3.233,6.251,3.233s4.813-1.717,6.255-3.233c1.414-1.485,2.635-2.767,5.17-2.767s3.755,1.282,5.169,2.767c1.286,1.351,2.733,2.855,5.282,3.166,0-.013,0-.025,0-.038V18.3c-1.9-.286-2.981-1.412-4.2-2.693-1.443-1.515-3.078-3.233-6.255-3.233s-4.813,1.718-6.256,3.233c-1.413,1.485-2.634,2.767-5.169,2.767s-3.752-1.282-5.164-2.767c-1.388-1.459-2.968-3.089-5.916-3.21v1.5C18.764,14.01,19.949,15.228,21.3,16.643Z"/>
  <path d="M49.422,19.809a7.868,7.868,0,0,0,.973.067v-1.5a6.51,6.51,0,0,1-.969-.074v1.469C49.426,19.784,49.423,19.8,49.422,19.809Z"/>
  <path d="M16.466,12.4c-.115,0-.217-.023-.336-.023v1.5c.12,0,.222.016.336.022Z"/>
</svg>
