<svg xmlns="http://www.w3.org/2000/svg" width="97.754" height="97.754" viewBox="0 0 97.754 97.754">
  <g>
    <path d="M84.643,0H13.111A13.126,13.126,0,0,0,0,13.111V84.643A13.126,13.126,0,0,0,13.111,97.754H84.643A13.125,13.125,0,0,0,97.754,84.643V13.111A13.126,13.126,0,0,0,84.643,0ZM96.254,42.921a.745.745,0,0,0-.309-.071H67.57V33.8H95.945a.745.745,0,0,0,.309-.071Zm0,10.554a.73.73,0,0,0-.309-.071H67.57V44.35H95.945a.73.73,0,0,0,.309-.071ZM1.5,44.35H30.184V53.4H1.5Zm30.184,0H42.807V53.4H31.684Zm11.123-1.5H31.684v-.731a2.8,2.8,0,0,1,2.728-2.857h5.667a2.8,2.8,0,0,1,2.728,2.857Zm1.5,1.5h9.141V53.4H44.307ZM54.948,54.9H66.07v1.35a2.8,2.8,0,0,1-2.728,2.857H57.675a2.8,2.8,0,0,1-2.727-2.857Zm0-1.5V44.35H66.07V53.4ZM66.07,32.3H54.948V20.536a2.8,2.8,0,0,1,2.727-2.857h5.667a2.8,2.8,0,0,1,2.728,2.857Zm0,1.5V42.85H54.948V33.8ZM53.448,42.85H44.307v-.731a4.3,4.3,0,0,0-4.228-4.357H34.412a4.3,4.3,0,0,0-4.228,4.357v.731H1.5V33.8H53.448ZM1.5,54.9H30.184v9.054H1.5ZM31.684,65.458H42.807v12.38a2.8,2.8,0,0,1-2.728,2.857H34.412a2.8,2.8,0,0,1-2.728-2.857Zm0-1.5V54.9H42.807v9.054ZM44.307,54.9h9.141v1.35a4.3,4.3,0,0,0,4.227,4.357h5.667a4.3,4.3,0,0,0,4.228-4.357V54.9H95.945a.745.745,0,0,0,.309-.071v9.2a.744.744,0,0,0-.309-.07H44.307ZM1.5,13.111A11.625,11.625,0,0,1,13.111,1.5H84.643A11.625,11.625,0,0,1,96.254,13.111V32.368a.73.73,0,0,0-.309-.071H67.57V20.536a4.3,4.3,0,0,0-4.228-4.357H57.675a4.3,4.3,0,0,0-4.227,4.357V32.3H1.5ZM96.254,84.643A11.625,11.625,0,0,1,84.643,96.254H13.111A11.625,11.625,0,0,1,1.5,84.643V65.458H30.184v12.38A4.3,4.3,0,0,0,34.412,82.2h5.667a4.3,4.3,0,0,0,4.228-4.357V65.458H95.945a.745.745,0,0,0,.309-.071Z"/>
    <path d="M60.509,26.039a1.676,1.676,0,1,0,1.676,1.676A1.676,1.676,0,0,0,60.509,26.039Z"/>
    <path d="M60.509,40.071A1.676,1.676,0,1,0,58.833,38.4,1.676,1.676,0,0,0,60.509,40.071Z"/>
    <path d="M60.509,47.248a1.676,1.676,0,1,0,1.676,1.676A1.676,1.676,0,0,0,60.509,47.248Z"/>
    <path d="M37.245,47.623A1.676,1.676,0,1,0,38.921,49.3,1.675,1.675,0,0,0,37.245,47.623Z"/>
    <path d="M37.245,58.3a1.676,1.676,0,1,0,1.676,1.676A1.675,1.675,0,0,0,37.245,58.3Z"/>
    <circle cx="37.245" cy="70.508" r="1.676"/>
  </g>
</svg>
