<svg xmlns="http://www.w3.org/2000/svg" width="97.754" height="97.754" viewBox="0 0 97.754 97.754">
  <g>
    <path d="M84.643,0H13.111A13.126,13.126,0,0,0,0,13.111V84.643A13.126,13.126,0,0,0,13.111,97.754H84.643A13.126,13.126,0,0,0,97.754,84.643V13.111A13.126,13.126,0,0,0,84.643,0ZM96.254,84.643A11.625,11.625,0,0,1,84.643,96.254H13.111A11.625,11.625,0,0,1,1.5,84.643V13.111A11.625,11.625,0,0,1,13.111,1.5H84.643A11.625,11.625,0,0,1,96.254,13.111Z"/>
    <path d="M29,28.819V16.1a.75.75,0,1,0-1.5,0V28.819a5.431,5.431,0,0,0,0,10.76V82.908a.75.75,0,0,0,1.5,0V39.579a5.431,5.431,0,0,0,0-10.76Zm0,9.242A3.933,3.933,0,1,1,32.184,34.2,3.941,3.941,0,0,1,29,38.061Z"/>
    <path d="M49.677,57.555V16.1a.75.75,0,1,0-1.5,0V57.555a5.432,5.432,0,0,0,0,10.761V82.908a.75.75,0,0,0,1.5,0V68.316a5.432,5.432,0,0,0,0-10.761Zm0,9.243a3.934,3.934,0,1,1,3.188-3.862A3.941,3.941,0,0,1,49.677,66.8Z"/>
    <path d="M70.357,40.424V16.1a.75.75,0,0,0-1.5,0V40.424a5.431,5.431,0,0,0,0,10.76V82.908a.75.75,0,0,0,1.5,0V51.184a5.431,5.431,0,0,0,0-10.76Zm0,9.242a3.739,3.739,0,0,1-1.5,0,3.938,3.938,0,1,1,1.5,0Z"/>
  </g>
</svg>
