<svg xmlns="http://www.w3.org/2000/svg" width="97.754" height="97.754" viewBox="0 0 97.754 97.754">
  <path d="M97,24.075a.75.75,0,0,0-.75.75V84.643A11.625,11.625,0,0,1,84.643,96.254H13.111A11.625,11.625,0,0,1,1.5,84.643V82.234a1.122,1.122,0,0,1,.846-1.1c7.448-1.692,11.217-17.509,15.206-34.256,3.929-16.491,7.991-33.543,15.268-33.543,6.988,0,10.907,17.285,14.586,34.728a6.3,6.3,0,0,0,2.638,12.321C53.5,75.811,57.38,88.423,64.4,88.423c8.481,0,12.628-18.423,17.018-37.929,3.87-17.2,7.872-34.976,14.541-36.513a2.174,2.174,0,0,0,1.72-2.321A13.087,13.087,0,0,0,84.643,0H13.111A13.127,13.127,0,0,0,0,13.112V68.39a.75.75,0,0,0,1.5,0V13.112A11.625,11.625,0,0,1,13.111,1.5H84.643A11.589,11.589,0,0,1,96.184,11.825a.673.673,0,0,1-.566.694C88.029,14.268,84.1,31.7,79.95,50.164,75.882,68.236,71.676,86.923,64.4,86.923c-5.95,0-9.675-12.531-12.921-27.021a6.294,6.294,0,0,0-2.567-11.991c-3.969-18.83-7.883-36.076-16.087-36.076-8.461,0-12.476,16.853-16.727,34.7C12.386,62.093,8.552,78.186,2.014,79.671A2.632,2.632,0,0,0,0,82.234v2.409A13.126,13.126,0,0,0,13.111,97.754H84.643A13.125,13.125,0,0,0,97.754,84.643V24.825A.75.75,0,0,0,97,24.075ZM53.593,54.208a4.767,4.767,0,1,1-4.8-4.8c.15,0,.292.031.44.044A4.793,4.793,0,0,1,53.593,54.208Z"/>
</svg>
