<svg xmlns="http://www.w3.org/2000/svg" width="97.754" height="97.754" viewBox="0 0 97.754 97.754">
  <g>
    <path d="M84.643,0H13.111A13.126,13.126,0,0,0,0,13.111V84.643A13.126,13.126,0,0,0,13.111,97.754H84.643A13.125,13.125,0,0,0,97.754,84.643V13.111A13.126,13.126,0,0,0,84.643,0ZM96.254,84.643A11.625,11.625,0,0,1,84.643,96.254H13.111A11.625,11.625,0,0,1,1.5,84.643V13.111A11.625,11.625,0,0,1,13.111,1.5H84.643A11.625,11.625,0,0,1,96.254,13.111Z"/>
    <path d="M32.513,67.546a1.676,1.676,0,1,0,1.676,1.675A1.675,1.675,0,0,0,32.513,67.546Z"/>
    <circle cx="19.162" cy="69.221" r="1.676"/>
    <circle cx="78.592" cy="69.221" r="1.676"/>
    <path d="M65.241,67.546a1.676,1.676,0,1,0,1.675,1.675A1.675,1.675,0,0,0,65.241,67.546Z"/>
    <path d="M49.627,22.868V16.961h-1.5v5.907A38.9,38.9,0,0,0,10.021,61.706h1.5A37.392,37.392,0,0,1,48.127,24.368V64.177a5.438,5.438,0,1,0,1.5,0V24.368A37.392,37.392,0,0,1,86.233,61.706h1.5A38.9,38.9,0,0,0,49.627,22.868ZM44.939,69.557a3.938,3.938,0,1,1,3.938,3.937A3.942,3.942,0,0,1,44.939,69.557Z"/>
  </g>
</svg>
