<svg xmlns="http://www.w3.org/2000/svg" width="97.754" height="97.754" viewBox="0 0 97.754 97.754">
  <g>
    <path d="M35.17,61.039a4.615,4.615,0,0,0,4.057.793,4.88,4.88,0,0,0,3.478-4.745V40.14a3.156,3.156,0,0,1,3.152-3.153l8.631.034a3.259,3.259,0,0,1,3.221,3.249V57.287a3.19,3.19,0,0,1-.958,2.289,3.224,3.224,0,0,1-2.3.926,3.275,3.275,0,0,1-3.169-3.169,3.215,3.215,0,0,1,3.215-3.262.75.75,0,0,0,0-1.5,4.716,4.716,0,0,0-4.715,4.783A4.747,4.747,0,0,0,54.426,62h.068a4.715,4.715,0,0,0,4.715-4.715V40.27A4.763,4.763,0,0,0,54.5,35.521l-8.644-.034a4.658,4.658,0,0,0-4.652,4.653V57.087a3.377,3.377,0,0,1-2.38,3.3,3.119,3.119,0,0,1-2.747-.542,3.2,3.2,0,0,1,1.911-5.774.75.75,0,1,0,0-1.5,4.7,4.7,0,0,0-2.819,8.468Z"/>
    <path d="M84.643,0H13.111A13.126,13.126,0,0,0,0,13.111V84.643A13.126,13.126,0,0,0,13.111,97.754H84.643A13.125,13.125,0,0,0,97.754,84.643V13.111A13.126,13.126,0,0,0,84.643,0ZM96.254,84.643A11.625,11.625,0,0,1,84.643,96.254H13.111A11.625,11.625,0,0,1,1.5,84.643V13.111A11.625,11.625,0,0,1,13.111,1.5H84.643A11.625,11.625,0,0,1,96.254,13.111Z"/>
    <path d="M88.632,71.471a.75.75,0,0,0-.75-.75h-17.2V27.8h17.2a.75.75,0,0,0,0-1.5H7.548a.75.75,0,0,0,0,1.5h17.2V70.721H7.548a.75.75,0,0,0,0,1.5H87.882A.75.75,0,0,0,88.632,71.471Zm-19.454-.75H26.252V27.8H69.178Z"/>
    <path d="M14.728,22.923h2.8a1.408,1.408,0,0,0,1.407-1.407V16.129a1.409,1.409,0,0,0-1.407-1.408h-2.8a1.409,1.409,0,0,0-1.408,1.408v5.387A1.409,1.409,0,0,0,14.728,22.923Zm.092-6.7h2.619v5.2H14.82Z"/>
    <path d="M23.752,22.923h2.8a1.409,1.409,0,0,0,1.408-1.407V16.129a1.409,1.409,0,0,0-1.408-1.408h-2.8a1.41,1.41,0,0,0-1.408,1.408v5.387A1.409,1.409,0,0,0,23.752,22.923Zm.092-6.7h2.62v5.2h-2.62Z"/>
    <path d="M32.776,22.923h2.805a1.409,1.409,0,0,0,1.408-1.407V16.129a1.41,1.41,0,0,0-1.408-1.408h-2.8a1.409,1.409,0,0,0-1.407,1.408v5.387A1.408,1.408,0,0,0,32.776,22.923Zm.093-6.7h2.62v5.2h-2.62Z"/>
    <path d="M41.8,22.923h2.8a1.409,1.409,0,0,0,1.408-1.407V16.129a1.41,1.41,0,0,0-1.408-1.408H41.8a1.41,1.41,0,0,0-1.408,1.408v5.387A1.409,1.409,0,0,0,41.8,22.923Zm.092-6.7h2.62v5.2h-2.62Z"/>
    <path d="M50.826,22.923h2.8a1.409,1.409,0,0,0,1.409-1.407V16.129a1.41,1.41,0,0,0-1.409-1.408h-2.8a1.41,1.41,0,0,0-1.409,1.408v5.387A1.409,1.409,0,0,0,50.826,22.923Zm.091-6.7h2.621v5.2H50.917Z"/>
    <path d="M59.85,22.923h2.8a1.409,1.409,0,0,0,1.408-1.407V16.129a1.409,1.409,0,0,0-1.408-1.408h-2.8a1.41,1.41,0,0,0-1.408,1.408v5.387A1.409,1.409,0,0,0,59.85,22.923Zm.092-6.7h2.62v5.2h-2.62Z"/>
    <path d="M68.875,22.923h2.8a1.408,1.408,0,0,0,1.407-1.407V16.129a1.409,1.409,0,0,0-1.407-1.408h-2.8a1.409,1.409,0,0,0-1.408,1.408v5.387A1.409,1.409,0,0,0,68.875,22.923Zm.092-6.7h2.619v5.2H68.967Z"/>
    <path d="M77.9,22.923h2.8a1.409,1.409,0,0,0,1.408-1.407V16.129A1.41,1.41,0,0,0,80.7,14.721H77.9a1.41,1.41,0,0,0-1.408,1.408v5.387A1.409,1.409,0,0,0,77.9,22.923Zm.092-6.7h2.62v5.2h-2.62Z"/>
    <path d="M88.247,16.221a.75.75,0,0,0,0-1.5H86.923a1.409,1.409,0,0,0-1.407,1.408v5.387a1.408,1.408,0,0,0,1.407,1.407h1.324a.75.75,0,0,0,0-1.5H87.016v-5.2Z"/>
    <path d="M7.17,21.423a.75.75,0,1,0,0,1.5H8.494A1.409,1.409,0,0,0,9.9,21.516V16.129a1.409,1.409,0,0,0-1.408-1.408H7.17a.75.75,0,1,0,0,1.5H8.4v5.2Z"/>
    <path d="M17.532,75.913h-2.8a1.409,1.409,0,0,0-1.408,1.408v5.386a1.409,1.409,0,0,0,1.408,1.408h2.8a1.409,1.409,0,0,0,1.407-1.408V77.321A1.409,1.409,0,0,0,17.532,75.913Zm-.093,6.7H14.82v-5.2h2.619Z"/>
    <path d="M26.556,75.913h-2.8a1.409,1.409,0,0,0-1.408,1.408v5.386a1.41,1.41,0,0,0,1.408,1.408h2.8a1.409,1.409,0,0,0,1.408-1.408V77.321A1.409,1.409,0,0,0,26.556,75.913Zm-.092,6.7h-2.62v-5.2h2.62Z"/>
    <path d="M35.581,75.913h-2.8a1.409,1.409,0,0,0-1.407,1.408v5.386a1.409,1.409,0,0,0,1.407,1.408h2.805a1.41,1.41,0,0,0,1.408-1.408V77.321A1.409,1.409,0,0,0,35.581,75.913Zm-.092,6.7h-2.62v-5.2h2.62Z"/>
    <path d="M44.605,75.913H41.8a1.409,1.409,0,0,0-1.408,1.408v5.386A1.41,1.41,0,0,0,41.8,84.115h2.8a1.41,1.41,0,0,0,1.408-1.408V77.321A1.409,1.409,0,0,0,44.605,75.913Zm-.092,6.7h-2.62v-5.2h2.62Z"/>
    <path d="M53.629,75.913h-2.8a1.41,1.41,0,0,0-1.409,1.408v5.386a1.41,1.41,0,0,0,1.409,1.408h2.8a1.41,1.41,0,0,0,1.409-1.408V77.321A1.41,1.41,0,0,0,53.629,75.913Zm-.091,6.7H50.917v-5.2h2.621Z"/>
    <path d="M62.654,75.913h-2.8a1.409,1.409,0,0,0-1.408,1.408v5.386a1.41,1.41,0,0,0,1.408,1.408h2.8a1.409,1.409,0,0,0,1.408-1.408V77.321A1.409,1.409,0,0,0,62.654,75.913Zm-.092,6.7h-2.62v-5.2h2.62Z"/>
    <path d="M71.679,75.913h-2.8a1.409,1.409,0,0,0-1.408,1.408v5.386a1.409,1.409,0,0,0,1.408,1.408h2.8a1.409,1.409,0,0,0,1.407-1.408V77.321A1.409,1.409,0,0,0,71.679,75.913Zm-.093,6.7H68.967v-5.2h2.619Z"/>
    <path d="M80.7,75.913H77.9a1.409,1.409,0,0,0-1.408,1.408v5.386A1.41,1.41,0,0,0,77.9,84.115h2.8a1.41,1.41,0,0,0,1.408-1.408V77.321A1.409,1.409,0,0,0,80.7,75.913Zm-.092,6.7h-2.62v-5.2h2.62Z"/>
    <path d="M88.247,77.413a.75.75,0,0,0,0-1.5H86.923a1.409,1.409,0,0,0-1.407,1.408v5.386a1.409,1.409,0,0,0,1.407,1.408h1.324a.75.75,0,0,0,0-1.5H87.016v-5.2Z"/>
    <path d="M8.494,75.913H7.17a.75.75,0,0,0,0,1.5H8.4v5.2H7.17a.75.75,0,0,0,0,1.5H8.494A1.409,1.409,0,0,0,9.9,82.707V77.321A1.409,1.409,0,0,0,8.494,75.913Z"/>
  </g>
</svg>
