<svg xmlns="http://www.w3.org/2000/svg" width="70.484" height="85.707" viewBox="0 0 70.484 85.707">
  <g>
    <path d="M69.342,70.185a38.065,38.065,0,0,0-68.2,0,10.732,10.732,0,0,0,9.609,15.522H59.733a10.732,10.732,0,0,0,9.609-15.522ZM67.6,79.817a9.19,9.19,0,0,1-7.866,4.39H10.751A9.233,9.233,0,0,1,2.483,70.856a36.566,36.566,0,0,1,65.518,0A9.151,9.151,0,0,1,67.6,79.817Z"/>
    <path d="M35.242,40.654A20.327,20.327,0,1,0,14.915,20.327,20.35,20.35,0,0,0,35.242,40.654Zm0-39.154A18.827,18.827,0,1,1,16.415,20.327,18.849,18.849,0,0,1,35.242,1.5Z"/>
  </g>
</svg>
