<svg xmlns="http://www.w3.org/2000/svg" width="97.754" height="97.754" viewBox="0 0 97.754 97.754">
  <g>
    <path d="M84.643,0H13.111A13.126,13.126,0,0,0,0,13.111V84.643A13.126,13.126,0,0,0,13.111,97.754H84.643A13.125,13.125,0,0,0,97.754,84.643V13.111A13.126,13.126,0,0,0,84.643,0ZM96.254,84.643A11.625,11.625,0,0,1,84.643,96.254H13.111A11.625,11.625,0,0,1,1.5,84.643V13.111A11.625,11.625,0,0,1,13.111,1.5H84.643A11.625,11.625,0,0,1,96.254,13.111Z"/>
    <path d="M65.654,61.581h4.515a1.878,1.878,0,0,0,1.876-1.875V55.551a1.877,1.877,0,0,0-1.876-1.875H61.421A17.182,17.182,0,0,0,49.85,48.262a.749.749,0,0,0,.048-.241V39.868h3.719v4.076a3.194,3.194,0,0,0,3.19,3.19h10.3a3.194,3.194,0,0,0,3.19-3.19V36.681a3.193,3.193,0,0,0-3.19-3.189h-10.3a3.193,3.193,0,0,0-3.19,3.189v1.687H44.462V36.681a3.192,3.192,0,0,0-3.189-3.189h-10.3a3.192,3.192,0,0,0-3.189,3.189v7.263a3.193,3.193,0,0,0,3.189,3.19h10.3a3.193,3.193,0,0,0,3.189-3.19V39.868H48.4v8.153a.754.754,0,0,0,.043.212,17.215,17.215,0,0,0-12.835,6.2H26.933a1.877,1.877,0,0,0-1.875,1.875V70.185a1.877,1.877,0,0,0,1.875,1.875h5.991a17.283,17.283,0,0,0,3.221,5.023c-.01.015-.025.024-.034.041l-2.823,5.283a.75.75,0,0,0,1.323.707l2.635-4.931a17.148,17.148,0,0,0,23.031.177l2.54,4.754a.75.75,0,1,0,1.323-.707L61.4,77.275a17.068,17.068,0,0,0,4.256-15.694Zm-10.537-24.9a1.692,1.692,0,0,1,1.69-1.689h10.3a1.692,1.692,0,0,1,1.69,1.689v7.263a1.692,1.692,0,0,1-1.69,1.69h-10.3a1.692,1.692,0,0,1-1.69-1.69ZM42.962,43.944a1.691,1.691,0,0,1-1.689,1.69h-10.3a1.692,1.692,0,0,1-1.689-1.69V36.681a1.691,1.691,0,0,1,1.689-1.689h10.3a1.691,1.691,0,0,1,1.689,1.689ZM34.575,72.06a15.6,15.6,0,0,1,1.77-16.124,15.733,15.733,0,0,1,27.3,4.145,15.419,15.419,0,0,1,.463,1.5A15.732,15.732,0,0,1,34.575,72.06ZM70.169,55.176a.376.376,0,0,1,.376.375v4.155a.377.377,0,0,1-.376.375h-4.93a17.168,17.168,0,0,0-2.564-4.905ZM26.933,70.56a.375.375,0,0,1-.375-.375V56.311a.375.375,0,0,1,.375-.375H34.49A17.207,17.207,0,0,0,32.377,70.56Z"/>
    <path d="M84.865,48.573H77.039V40.638a.75.75,0,1,0-1.5,0v7.935H67.93a.75.75,0,0,0,0,1.5h7.609v22.5l-5.332,9.491a.749.749,0,0,0,.287,1.021.738.738,0,0,0,.366.1.75.75,0,0,0,.655-.383l4.024-7.163v6.578a.75.75,0,0,0,1.5,0V75.95l3.247,6.494a.75.75,0,1,0,1.342-.671L77.039,72.6V50.073h7.826a.75.75,0,0,0,0-1.5Z"/>
    <path d="M21.455,72.378V29.457l6.575-7.9a28.748,28.748,0,0,0,7.305,1.42c1.4,0,2.519-.311,2.814-1.206.908-2.746-7.661-5.667-8.642-5.991S19.9,12.7,19,15.441c-.75,2.267,4.948,4.649,7.515,5.6l-6.066,7.288a.736.736,0,0,0-.462.555L12.312,38.1a.75.75,0,0,0,1.153.96l6.49-7.8v41.51l-5.223,9.3a.749.749,0,0,0,.287,1.021.738.738,0,0,0,.366.1.751.751,0,0,0,.655-.383l3.915-6.97v6.6a.75.75,0,0,0,1.5,0v-6.7l3.356,6.711a.75.75,0,1,0,1.342-.671Zm-1-56.454c.652-.378,3.86-.278,8.582,1.282s7.357,3.393,7.654,4.086c-.606.353-3.429.288-7.623-.98l.573-.689a.75.75,0,1,0-1.153-.96l-.951,1.142C23.189,18.291,20.739,16.586,20.455,15.924Z"/>
  </g>
</svg>
