<svg xmlns="http://www.w3.org/2000/svg" width="97.754" height="97.754" viewBox="0 0 97.754 97.754">
  <g>
    <path d="M84.643,0H13.111A13.127,13.127,0,0,0,0,13.112V84.643A13.126,13.126,0,0,0,13.111,97.754H84.643A13.125,13.125,0,0,0,97.754,84.643V13.112A13.126,13.126,0,0,0,84.643,0ZM96.254,84.643A11.625,11.625,0,0,1,84.643,96.254H13.111A11.625,11.625,0,0,1,1.5,84.643V13.112A11.625,11.625,0,0,1,13.111,1.5H84.643A11.625,11.625,0,0,1,96.254,13.112Z"/>
    <path d="M57.38,29.24l-6-.052H44.3a6.667,6.667,0,0,0-6.659,6.66V61.51a5.5,5.5,0,0,1-3.887,5.367,5.116,5.116,0,0,1-4.5-.885,5.226,5.226,0,0,1,3.127-9.436.75.75,0,0,0,0-1.5,6.726,6.726,0,0,0-4.034,12.131,6.6,6.6,0,0,0,5.805,1.135,7,7,0,0,0,4.984-6.812V35.848a5.165,5.165,0,0,1,5.159-5.16h7.077l6,.052a5.32,5.32,0,0,1,5.258,5.3V61.811a5.253,5.253,0,0,1-5.33,5.254,5.355,5.355,0,0,1-5.179-5.179,5.255,5.255,0,0,1,5.255-5.33.75.75,0,0,0,0-1.5,6.756,6.756,0,0,0-6.755,6.851,6.8,6.8,0,0,0,6.659,6.658h.1a6.755,6.755,0,0,0,6.753-6.755V36.044A6.825,6.825,0,0,0,57.38,29.24Z"/>
  </g>
</svg>
