<svg xmlns="http://www.w3.org/2000/svg" width="97.754" height="97.754" viewBox="0 0 97.754 97.754">
  <g>
    <path d="M84.643,0H13.111A13.126,13.126,0,0,0,0,13.111V84.643A13.126,13.126,0,0,0,13.111,97.754H84.643A13.125,13.125,0,0,0,97.754,84.643V13.111A13.126,13.126,0,0,0,84.643,0ZM31.512,68.127c-.008-.138-.021-.275-.021-.415V61.627H66.264v6.085c0,.14-.013.277-.021.415Zm34.48,1.5a7.058,7.058,0,0,1-6.781,5.137H38.543a7.06,7.06,0,0,1-6.781-5.137Zm.251-40c.008.138.021.275.021.415v6.085H31.491V30.042c0-.14.013-.277.021-.415Zm-34.48-1.5a7.058,7.058,0,0,1,6.78-5.137H59.211a7.059,7.059,0,0,1,6.781,5.137ZM96.254,36.2a.726.726,0,0,0-.309-.071H67.764V30.042c0-.14-.015-.276-.021-.415h28.2a.726.726,0,0,0,.309-.071Zm0,8a.726.726,0,0,0-.309-.071H67.764v-6.5H95.945a.726.726,0,0,0,.309-.071Zm0,8a.726.726,0,0,0-.309-.071H67.764v-6.5H95.945a.726.726,0,0,0,.309-.071Zm0,8a.726.726,0,0,0-.309-.071H67.764v-6.5H95.945a.726.726,0,0,0,.309-.071ZM66.264,44.127H31.491v-6.5H66.264Zm0,8H31.491v-6.5H66.264ZM1.5,45.627H29.991v6.5H1.5Zm28.491-1.5H1.5v-6.5H29.991ZM1.5,53.627H29.991v6.5H1.5Zm29.991,0H66.264v6.5H31.491Zm-1.5-23.585v6.085H1.5v-6.5H30.012C30.006,29.766,29.991,29.9,29.991,30.042ZM1.5,61.627H29.991v6.085c0,.14.015.277.021.415H1.5Zm66.264,6.085V61.627H95.945a.726.726,0,0,0,.309-.071V68.2a.726.726,0,0,0-.309-.071h-28.2C67.749,67.989,67.764,67.852,67.764,67.712ZM1.5,13.111A11.625,11.625,0,0,1,13.111,1.5H84.643A11.625,11.625,0,0,1,96.254,13.111V28.2a.726.726,0,0,0-.309-.071H67.54a8.563,8.563,0,0,0-8.329-6.637H38.543a8.562,8.562,0,0,0-8.328,6.637H1.5ZM96.254,84.643A11.625,11.625,0,0,1,84.643,96.254H13.111A11.625,11.625,0,0,1,1.5,84.643V69.627H30.215a8.562,8.562,0,0,0,8.328,6.637H59.211a8.563,8.563,0,0,0,8.329-6.637h28.4a.726.726,0,0,0,.309-.071Z"/>
    <path d="M59.353,34.629a1.676,1.676,0,1,0-1.675-1.676A1.676,1.676,0,0,0,59.353,34.629Z"/>
    <path d="M59.353,42.657a1.676,1.676,0,1,0-1.675-1.676A1.676,1.676,0,0,0,59.353,42.657Z"/>
    <path d="M59.353,50.685a1.676,1.676,0,1,0-1.675-1.676A1.676,1.676,0,0,0,59.353,50.685Z"/>
    <path d="M59.353,55.362a1.676,1.676,0,1,0,1.676,1.675A1.675,1.675,0,0,0,59.353,55.362Z"/>
    <path d="M59.353,63.39a1.676,1.676,0,1,0,1.676,1.675A1.675,1.675,0,0,0,59.353,63.39Z"/>
  </g>
</svg>
