<svg xmlns="http://www.w3.org/2000/svg" width="92.023" height="92.061" viewBox="0 0 92.023 92.061">
  <path d="M91.955,81.118,83.579,15.776a8.328,8.328,0,0,0-9.307-7.192L62.043,10.152a.75.75,0,0,0,.19,1.488l12.23-1.568a6.815,6.815,0,0,1,7.628,5.9l8.375,65.342a6.824,6.824,0,0,1-5.894,7.628L72.342,90.5a6.816,6.816,0,0,1-7.628-5.894l-6.97-54.385A179.963,179.963,0,0,1,56.289,8.317,8.326,8.326,0,0,0,47.972,0H35.643a8.326,8.326,0,0,0-8.317,8.317V83.244a8.336,8.336,0,0,0,.078,1.077,6.824,6.824,0,0,1-6.758,5.963H8.317A6.825,6.825,0,0,1,1.5,83.467V26.1a6.825,6.825,0,0,1,6.817-6.817H20.646a.75.75,0,0,0,0-1.5H8.317A8.326,8.326,0,0,0,0,26.1V83.467a8.326,8.326,0,0,0,8.317,8.317H20.646A8.32,8.32,0,0,0,28.2,86.93a8.32,8.32,0,0,0,7.445,4.631H47.972a8.326,8.326,0,0,0,8.317-8.317.75.75,0,0,0-1.5,0,6.826,6.826,0,0,1-6.817,6.817H35.643a6.823,6.823,0,0,1-6.724-5.74,8.318,8.318,0,0,0,.044-.854V26.1a.734.734,0,0,0-.137-.408V8.317A6.825,6.825,0,0,1,35.643,1.5H47.972a6.826,6.826,0,0,1,6.817,6.821,181.762,181.762,0,0,0,1.466,22.1L63.226,84.8a8.319,8.319,0,0,0,8.232,7.261,8.482,8.482,0,0,0,1.075-.069l12.229-1.567a8.318,8.318,0,0,0,7.193-9.307Z"/>
</svg>
