<svg xmlns="http://www.w3.org/2000/svg" width="97.754" height="97.754" viewBox="0 0 97.754 97.754">
  <g>
    <path d="M84.643,0H13.111A13.126,13.126,0,0,0,0,13.111V84.643A13.126,13.126,0,0,0,13.111,97.754H84.643A13.125,13.125,0,0,0,97.754,84.643V13.111A13.126,13.126,0,0,0,84.643,0ZM96.254,84.643A11.625,11.625,0,0,1,84.643,96.254H13.111A11.625,11.625,0,0,1,1.5,84.643V13.111A11.625,11.625,0,0,1,13.111,1.5H84.643A11.625,11.625,0,0,1,96.254,13.111Z"/>
    <path d="M48.877,28.212A20.665,20.665,0,1,0,69.542,48.877,20.688,20.688,0,0,0,48.877,28.212ZM68,49.627a19.165,19.165,0,1,1,0-1.5H48.877v1.5Z"/>
    <circle cx="48.877" cy="76.786" r="1.676"/>
    <path d="M61.994,71.6a1.676,1.676,0,1,0,2.289.614A1.676,1.676,0,0,0,61.994,71.6Z"/>
    <path d="M73.885,61.38a1.676,1.676,0,1,0,.613,2.289A1.675,1.675,0,0,0,73.885,61.38Z"/>
    <path d="M76.786,47.2a1.676,1.676,0,1,0,1.676,1.676A1.676,1.676,0,0,0,76.786,47.2Z"/>
    <path d="M72.209,33.471a1.676,1.676,0,1,0,2.289.614A1.675,1.675,0,0,0,72.209,33.471Z"/>
    <path d="M61.994,26.158a1.675,1.675,0,1,0-.614-2.289A1.675,1.675,0,0,0,61.994,26.158Z"/>
    <path d="M48.877,22.644A1.676,1.676,0,1,0,47.2,20.968,1.676,1.676,0,0,0,48.877,22.644Z"/>
    <path d="M35.76,26.158a1.675,1.675,0,1,0-2.289-.613A1.675,1.675,0,0,0,35.76,26.158Z"/>
    <path d="M25.545,33.471a1.676,1.676,0,1,0,.614,2.289A1.676,1.676,0,0,0,25.545,33.471Z"/>
    <path d="M20.968,47.2a1.676,1.676,0,1,0,1.676,1.676A1.676,1.676,0,0,0,20.968,47.2Z"/>
    <path d="M23.869,61.38a1.676,1.676,0,1,0,2.29.613A1.676,1.676,0,0,0,23.869,61.38Z"/>
    <path d="M35.76,71.6a1.676,1.676,0,1,0,.614,2.29A1.676,1.676,0,0,0,35.76,71.6Z"/>
  </g>
</svg>
