<svg xmlns="http://www.w3.org/2000/svg" width="91.561" height="91.561" viewBox="0 0 91.561 91.561">
  <path d="M83.244,31.3H62.512a2.252,2.252,0,0,1-2.25-2.25V8.317A8.326,8.326,0,0,0,51.945,0H39.615A8.326,8.326,0,0,0,31.3,8.317V29.049a2.253,2.253,0,0,1-2.25,2.25H8.316A8.326,8.326,0,0,0,0,39.616V51.945a8.326,8.326,0,0,0,8.316,8.317H29.049a2.253,2.253,0,0,1,2.25,2.25V83.244a8.326,8.326,0,0,0,8.316,8.317h12.33a8.326,8.326,0,0,0,8.317-8.317V62.409a2.255,2.255,0,0,1,2.253-2.249h.022c5.542.052,9.6.1,9.611.1h11.1a8.326,8.326,0,0,0,8.317-8.317V39.616A8.326,8.326,0,0,0,83.244,31.3Zm6.817,20.646a6.825,6.825,0,0,1-6.817,6.817H72.157s-4.06-.05-9.606-.1h-.037a3.756,3.756,0,0,0-3.752,3.749V83.244a6.825,6.825,0,0,1-6.817,6.817H39.615A6.824,6.824,0,0,1,32.8,83.244V62.512a3.755,3.755,0,0,0-3.75-3.75H8.316A6.824,6.824,0,0,1,1.5,51.945V39.616A6.824,6.824,0,0,1,8.316,32.8H29.049a3.755,3.755,0,0,0,3.75-3.75V8.317A6.824,6.824,0,0,1,39.615,1.5h12.33a6.825,6.825,0,0,1,6.817,6.817V29.049a3.754,3.754,0,0,0,3.75,3.75H83.244a6.825,6.825,0,0,1,6.817,6.817Z"/>
</svg>
