<svg xmlns="http://www.w3.org/2000/svg" width="97.754" height="97.754" viewBox="0 0 97.754 97.754">
  <g>
    <path d="M84.643,0H13.112A13.127,13.127,0,0,0,0,13.112V84.643A13.126,13.126,0,0,0,13.112,97.754H84.643A13.125,13.125,0,0,0,97.754,84.643V13.112A13.126,13.126,0,0,0,84.643,0ZM96.254,84.643A11.625,11.625,0,0,1,84.643,96.254H13.112A11.625,11.625,0,0,1,1.5,84.643V13.112A11.625,11.625,0,0,1,13.112,1.5H84.643A11.625,11.625,0,0,1,96.254,13.112Z"/>
    <path d="M60.6,29.733H53.8a6.429,6.429,0,0,0-6.422,6.422V61.077a5.019,5.019,0,0,1-5.014,5.014h0a5.1,5.1,0,0,1-5.013-5.014,5.019,5.019,0,0,1,5.014-5.014.75.75,0,0,0,0-1.5,6.521,6.521,0,0,0-6.514,6.514,6.6,6.6,0,0,0,6.513,6.514h0a6.521,6.521,0,0,0,6.514-6.514V36.155A4.928,4.928,0,0,1,53.8,31.233h6.8a.75.75,0,0,0,0-1.5Z"/>
  </g>
</svg>
