<svg xmlns="http://www.w3.org/2000/svg" width="97.754" height="97.754" viewBox="0 0 97.754 97.754">
  <g>
    <path d="M84.643,0H13.111A13.126,13.126,0,0,0,0,13.111V84.643A13.126,13.126,0,0,0,13.111,97.754H84.643A13.125,13.125,0,0,0,97.754,84.643V13.111A13.126,13.126,0,0,0,84.643,0ZM96.254,84.643A11.625,11.625,0,0,1,84.643,96.254H13.111A11.625,11.625,0,0,1,1.5,84.643V13.111A11.625,11.625,0,0,1,13.111,1.5H84.643A11.625,11.625,0,0,1,96.254,13.111Z"/>
    <path d="M52.1,25.98a4.7,4.7,0,0,0-4.743,0L29.223,36.451a2.364,2.364,0,0,1-1.177.315h-7.16a6.755,6.755,0,0,0-6.748,6.748v8.8a6.755,6.755,0,0,0,6.748,6.748H27.48a2.354,2.354,0,0,1,1.176.315l18.7,10.8a4.743,4.743,0,0,0,7.114-4.107V30.087A4.7,4.7,0,0,0,52.1,25.98Zm.871,40.092a3.243,3.243,0,0,1-4.864,2.808l-18.7-10.8a3.849,3.849,0,0,0-1.926-.516H20.886a5.254,5.254,0,0,1-5.248-5.248v-8.8a5.254,5.254,0,0,1,5.248-5.248h7.16a3.854,3.854,0,0,0,1.926-.516L48.109,27.279a3.243,3.243,0,0,1,4.864,2.808Z"/>
    <path d="M69.66,19.349A.75.75,0,1,0,68.7,20.5a37.029,37.029,0,0,1,.345,56.754A.75.75,0,1,0,70.02,78.4a38.527,38.527,0,0,0-.36-59.05Z"/>
    <path d="M65.119,26.722a.75.75,0,1,0-1,1.115,28.481,28.481,0,0,1,.335,42.075.75.75,0,0,0,1.021,1.1,29.982,29.982,0,0,0-.353-44.29Z"/>
    <path d="M61.073,33.326A.75.75,0,1,0,60,34.377a20.9,20.9,0,0,1,.316,28.973.75.75,0,1,0,1.093,1.027,22.4,22.4,0,0,0-.339-31.051Z"/>
  </g>
</svg>
