<svg xmlns="http://www.w3.org/2000/svg" xmlns:xlink="http://www.w3.org/1999/xlink" width="337.572" height="86.417" viewBox="0 0 337.572 86.417">
  <defs>
    <linearGradient id="a" x1="341.205" y1="43.209" x2="71.229" y2="43.209" gradientUnits="userSpaceOnUse">
      <stop offset="0" stop-color="#f09967"/>
      <stop offset="0.768" stop-color="#89a7c8"/>
    </linearGradient>
  </defs>
  <path d="M47.905,38.108a4.2,4.2,0,0,0-1.468.311C42.621,20.263,38.672,1.5,31.391,1.5c-7.175,0-11.4,18.138-15.134,34.141C12.219,52.96,8.4,69.318.75,69.318a.75.75,0,0,1,0-1.5c6.465,0,10.318-16.531,14.046-32.517C19.028,17.147,23.025,0,31.391,0,39.888,0,43.784,18.506,47.905,38.108ZM94.356,2.165a.75.75,0,0,0,0-1.5C86.044.665,82.092,19.043,77.907,38.5c-3.868,17.987-7.868,36.587-14.942,36.587-6.2,0-9.982-13.6-13.325-28.847a4.186,4.186,0,0,1-1.471.3c3.575,16.325,7.48,30.046,14.8,30.046,8.286,0,12.231-18.347,16.409-37.772C83.249,20.8,87.256,2.165,94.356,2.165Zm29.589,23.883h-.328a.692.692,0,0,0-.715.575l-5.771,23.72c-1.338,5.5-8.829,14.363-17.858,14.363-6.484,0-10.3-3.2-8.185-11.9l6.37-26.183c.08-.328-.024-.575-.434-.575H96.7a.691.691,0,0,0-.714.575l-6.37,26.183c-2.4,9.848,2.018,13.3,9.323,13.3,7.222,0,13.285-4.678,16.9-10.424l-.979,4.022c-1.078,4.432.595,5.991,2.729,5.991.493,0,.841-.082.96-.574l.08-.328c.1-.411-.106-.575-.435-.575-1.805,0-2.615-1.4-1.856-4.514l8.048-33.077C124.459,26.3,124.355,26.048,123.945,26.048ZM144.492,6.021h-.328a.692.692,0,0,0-.714.575L130.53,59.7c-1.078,4.432.594,5.991,2.728,5.991.492,0,.841-.082.961-.574l.08-.328c.1-.411-.107-.575-.435-.575-1.806,0-2.615-1.4-1.857-4.514l12.92-53.1C145.007,6.268,144.9,6.021,144.492,6.021ZM149.7,64.214c-1.806,0-2.615-1.4-1.857-4.514l12.92-53.1c.08-.328-.025-.575-.435-.575H160a.692.692,0,0,0-.714.575L146.37,59.7c-1.078,4.432.594,5.991,2.728,5.991.492,0,.841-.082.961-.574l.079-.328C150.239,64.378,150.032,64.214,149.7,64.214Zm43.842-25.361L188.474,59.7c-.758,3.118.051,4.514,2,4.6.328,0,.39.082.311.41l-.1.411c-.12.492-.448.492-.941.492-2.134,0-3.827-1.477-2.748-5.909l1.258-5.171c-2.822,4.514-8.807,11.573-18,11.573-7.879,0-11.493-3.366-9.935-9.767,1.478-6.074,6.562-9.768,16.411-9.768h13.461l1.877-7.714c2.017-8.291-1.311-11.82-9.108-11.82-7.961,0-13.145,4.1-14.523,9.768a9.51,9.51,0,0,0-.223,3.611c.065.41-.038.492-.366.492h-.492c-.41,0-.555-.082-.619-.492a9.283,9.283,0,0,1,.282-3.858c1.478-6.074,7.683-11,16.3-11C192.021,25.556,195.763,29.742,193.546,38.853Zm-3.694,9.11h-13.46c-7.88,0-13.113,2.955-14.411,8.29s1.965,8.453,8.614,8.453C182.578,64.706,189.113,51,189.113,51Zm46.324-7.223c2.037-8.372-.163-15.184-10.012-15.184-7.716,0-13.59,5.253-16.483,11.409l1.258-5.171c1.038-4.269-.634-5.828-2.686-5.828-.574,0-.943.164-1.043.575l-.1.41c-.1.41.291.492.455.492,2.239.246,2.5,1.888,1.9,4.351l-8.087,33.241c-.08.328.025.574.435.574h.328a.691.691,0,0,0,.715-.574l5.331-21.915c1.678-6.894,8.366-16.169,17.641-16.169,8.372,0,10.692,6.32,8.875,13.789L230.086,59.7c-1.078,4.432.594,5.991,2.728,5.991.493,0,.841-.082.96-.574l.08-.328c.1-.411-.106-.575-.434-.575-1.806,0-2.616-1.4-1.857-4.514Zm17.936-14.692h-.329a.692.692,0,0,0-.714.575L245.021,59.7c-1.078,4.432.6,5.991,2.729,5.991.492,0,.84-.082.96-.574l.08-.328c.1-.411-.106-.575-.435-.575-1.8,0-2.615-1.4-1.856-4.514l8.047-33.077C254.626,26.3,254.522,26.048,254.112,26.048Zm40.411,19.781C291.188,59.536,282.532,66.1,273.339,66.1s-14.653-6.566-11.319-20.273S274.011,25.556,283.2,25.556,297.858,32.122,294.523,45.829ZM282.864,26.951c-7.715,0-16.171,5.745-19.367,18.878s2.466,18.877,10.182,18.877,16.171-5.745,19.366-18.877S290.579,26.951,282.864,26.951ZM336.879,40.74c2.037-8.372-.163-15.184-10.012-15.184-7.716,0-13.59,5.253-16.483,11.409l1.258-5.171c1.038-4.269-.634-5.828-2.686-5.828-.574,0-.943.164-1.043.575l-.1.41c-.1.41.291.492.455.492,2.239.246,2.5,1.888,1.9,4.351l-8.087,33.241c-.08.328.025.574.435.574h.328a.691.691,0,0,0,.715-.574l5.331-21.915c1.678-6.894,8.366-16.169,17.641-16.169,8.372,0,10.692,6.32,8.875,13.789L330.789,59.7c-1.078,4.432.594,5.991,2.729,5.991.492,0,.84-.082.96-.574l.079-.328c.1-.411-.106-.575-.434-.575-1.806,0-2.615-1.4-1.857-4.514Zm-292.3,1.583A3.472,3.472,0,0,1,46.6,39.176l-.153-.727-.006-.03a4.229,4.229,0,0,0,1.625,8.134c.037,0,.071-.01.107-.011-.054-.248-.109-.5-.163-.744A3.477,3.477,0,0,1,44.582,42.323Zm3.478-3.481h0A3.477,3.477,0,0,1,49.478,45.5c.053.249.108.5.162.744a4.226,4.226,0,0,0-1.578-8.149c-.053,0-.1.014-.157.016l.007.032C47.961,38.374,48.011,38.608,48.06,38.842Zm-1.464.334a3.466,3.466,0,0,1,1.464-.334c-.049-.234-.1-.468-.148-.7l-.007-.032a4.2,4.2,0,0,0-1.468.311l.006.03ZM49.478,45.5a3.452,3.452,0,0,1-1.415.306c-.02,0-.038,0-.057,0,.054.249.109.5.163.744a4.186,4.186,0,0,0,1.471-.3C49.586,45.994,49.531,45.746,49.478,45.5Zm-4.146-3.174a2.722,2.722,0,0,1,1.425-2.384c-.054-.254-.107-.508-.161-.763a3.472,3.472,0,0,0,1.41,6.622c-.055-.255-.11-.512-.166-.767A2.725,2.725,0,0,1,45.332,42.323Zm6.211,0a3.48,3.48,0,0,0-3.48-3.481h0c.054.256.107.511.161.766a2.714,2.714,0,0,1,1.091,5.128c.055.255.11.508.166.761A3.476,3.476,0,0,0,51.543,42.323Zm-3.481,2.73c-.076,0-.147-.016-.222-.022.056.255.111.512.166.767.019,0,.037,0,.057,0a3.452,3.452,0,0,0,1.415-.306c-.056-.253-.111-.506-.166-.761A2.692,2.692,0,0,1,48.062,45.053Zm0-5.461c.055,0,.105.013.159.016-.054-.255-.107-.51-.161-.766a3.466,3.466,0,0,0-1.464.334c.054.255.107.509.161.763A2.7,2.7,0,0,1,48.062,39.592Zm212.1-24.819a3.492,3.492,0,1,1-3.492-3.492A3.5,3.5,0,0,1,260.164,14.773Zm-.749,0a2.743,2.743,0,1,0-2.743,2.742A2.743,2.743,0,0,0,259.415,14.774Zm0,0a2.743,2.743,0,1,1-2.743-2.743A2.743,2.743,0,0,1,259.415,14.774Zm-.751,0a1.992,1.992,0,1,0-1.992,1.993A1.994,1.994,0,0,0,258.664,14.773ZM92.393,84.077l-2.77-4.86H88.9v7.1h.7v-5.83L92.192,85H92.6l2.589-4.511v5.83h.7v-7.1h-.71Zm15.46-1.28a5.491,5.491,0,0,1-.106,1.07,2.7,2.7,0,0,1-.37.945,2.013,2.013,0,0,1-.71.67,2.555,2.555,0,0,1-2.215,0,2,2,0,0,1-.7-.66,2.718,2.718,0,0,1-.375-.94,5.366,5.366,0,0,1-.109-1.09v-3.58h-.691V82.8a5.7,5.7,0,0,0,.151,1.32,3.23,3.23,0,0,0,.5,1.14,2.565,2.565,0,0,0,.924.8,2.982,2.982,0,0,0,1.415.305,3.032,3.032,0,0,0,1.39-.29,2.535,2.535,0,0,0,.925-.78,3.26,3.26,0,0,0,.516-1.134,5.7,5.7,0,0,0,.159-1.366v-3.58h-.7Zm11.55.315a2.942,2.942,0,0,0-.775-.375,9.662,9.662,0,0,0-1.025-.27q-.51-.109-.885-.219a2.512,2.512,0,0,1-.615-.261,1,1,0,0,1-.355-.355,1.058,1.058,0,0,1-.115-.525,1.182,1.182,0,0,1,.43-.964,2.141,2.141,0,0,1,1.37-.355,2.908,2.908,0,0,1,1.14.21,2.158,2.158,0,0,1,.8.549l.34-.56a3.432,3.432,0,0,0-1-.6,3.491,3.491,0,0,0-1.265-.215,3.608,3.608,0,0,0-1.02.135,2.507,2.507,0,0,0-.8.39,1.723,1.723,0,0,0-.525.641,2,2,0,0,0-.185.875,1.632,1.632,0,0,0,.145.725,1.373,1.373,0,0,0,.435.5,2.671,2.671,0,0,0,.71.35q.42.14.98.27c.353.079.664.159.93.239a2.821,2.821,0,0,1,.67.286,1.158,1.158,0,0,1,.405.389,1.066,1.066,0,0,1,.135.555,1.023,1.023,0,0,1-.475.925,2.438,2.438,0,0,1-1.325.305,3.994,3.994,0,0,1-.78-.074,3.827,3.827,0,0,1-.695-.211,3.3,3.3,0,0,1-.59-.315,2.694,2.694,0,0,1-.455-.38l-.35.57a4.232,4.232,0,0,0,2.85,1.03,4.314,4.314,0,0,0,1.03-.115,2.348,2.348,0,0,0,.81-.355,1.7,1.7,0,0,0,.53-.6,1.8,1.8,0,0,0,.19-.85,1.7,1.7,0,0,0-.17-.8A1.568,1.568,0,0,0,119.4,83.112Zm6.889,3.2h.7v-7.1h-.7Zm12.141-1.295a2.609,2.609,0,0,1-.545.411,2.364,2.364,0,0,1-.611.239,2.645,2.645,0,0,1-.614.076,2.3,2.3,0,0,1-1.056-.246,2.676,2.676,0,0,1-.839-.66,3.184,3.184,0,0,1-.56-.955,3.147,3.147,0,0,1-.205-1.13,3.447,3.447,0,0,1,.17-1.065,2.933,2.933,0,0,1,.5-.944,2.593,2.593,0,0,1,.825-.681,2.376,2.376,0,0,1,1.13-.259,2.747,2.747,0,0,1,.59.065,2.208,2.208,0,0,1,.58.214,2.342,2.342,0,0,1,.525.391,2.106,2.106,0,0,1,.415.589l.55-.339a2.625,2.625,0,0,0-1-1.121,2.968,2.968,0,0,0-1.625-.43,3.155,3.155,0,0,0-1.43.315,3.358,3.358,0,0,0-1.06.816,3.545,3.545,0,0,0-.656,1.134,3.824,3.824,0,0,0-.224,1.275,3.785,3.785,0,0,0,.245,1.335,3.864,3.864,0,0,0,.684,1.17,3.526,3.526,0,0,0,1.051.836,2.841,2.841,0,0,0,1.34.319,3.337,3.337,0,0,0,.835-.109,3.471,3.471,0,0,0,.805-.321,3.146,3.146,0,0,0,.69-.514,2.206,2.206,0,0,0,.48-.705l-.58-.3A2.113,2.113,0,0,1,138.433,85.022Zm19.139-.084,1.33,1.379H158l-.82-.859a3.154,3.154,0,0,1-.965.7,2.881,2.881,0,0,1-2.07.114,2.2,2.2,0,0,1-.72-.395,1.918,1.918,0,0,1-.485-.61,1.708,1.708,0,0,1-.18-.785,1.765,1.765,0,0,1,.12-.66,2.09,2.09,0,0,1,.33-.555,3.48,3.48,0,0,1,.48-.475q.27-.219.57-.42c-.18-.193-.331-.366-.455-.52a3.784,3.784,0,0,1-.3-.424,1.623,1.623,0,0,1-.165-.375,1.393,1.393,0,0,1-.05-.37,1.42,1.42,0,0,1,.135-.616,1.511,1.511,0,0,1,.375-.5,1.784,1.784,0,0,1,.565-.329,2,2,0,0,1,.705-.121,2.031,2.031,0,0,1,.65.1,1.62,1.62,0,0,1,.525.284,1.349,1.349,0,0,1,.355.446,1.325,1.325,0,0,1,0,1.134,2.087,2.087,0,0,1-.335.485,3.529,3.529,0,0,1-.49.441q-.279.208-.6.42l1.99,2.08a3.81,3.81,0,0,0,.315-.826,3.748,3.748,0,0,0,.115-.935h.58a4.59,4.59,0,0,1-.165,1.17A3.837,3.837,0,0,1,157.572,84.938Zm-3.215-3.4q.165.206.435.485a7.372,7.372,0,0,0,.945-.715,1.015,1.015,0,0,0,.365-.765.81.81,0,0,0-.29-.64,1.1,1.1,0,0,0-.74-.25,1.288,1.288,0,0,0-.46.08,1.158,1.158,0,0,0-.365.221,1,1,0,0,0-.24.319.9.9,0,0,0-.085.39.86.86,0,0,0,.035.24,1.081,1.081,0,0,0,.135.276A4.17,4.17,0,0,0,154.357,81.542Zm2.445,3.516-2.15-2.27a4.714,4.714,0,0,0-.88.774,1.4,1.4,0,0,0-.35.945,1.167,1.167,0,0,0,.145.585,1.342,1.342,0,0,0,.385.43,1.669,1.669,0,0,0,.54.26,2.218,2.218,0,0,0,.61.085,2.065,2.065,0,0,0,.94-.215A2.46,2.46,0,0,0,156.8,85.058ZM178,81.382a4.333,4.333,0,0,1,.215,1.375,4.231,4.231,0,0,1-.24,1.465,3.185,3.185,0,0,1-.685,1.12,3.057,3.057,0,0,1-1.07.72,3.691,3.691,0,0,1-1.405.255H172.4v-7.1h2.411a3.653,3.653,0,0,1,1.485.281,3.018,3.018,0,0,1,1.059.759A3.19,3.19,0,0,1,178,81.382Zm-.485,1.375a3.659,3.659,0,0,0-.18-1.174,2.657,2.657,0,0,0-.525-.926,2.362,2.362,0,0,0-.845-.6,2.9,2.9,0,0,0-1.15-.215H173.1V85.7h1.71a2.823,2.823,0,0,0,1.165-.225,2.367,2.367,0,0,0,.844-.619,2.7,2.7,0,0,0,.516-.931A3.744,3.744,0,0,0,177.512,82.757Zm7.74.23h3.47V82.4h-3.47v-2.56h3.98v-.62h-4.68v7.1h4.77V85.7h-4.07Zm12.9,2.46-2.54-6.23h-.73l2.96,7.1h.61l2.96-7.1h-.73Zm20.67-2.335a2.942,2.942,0,0,0-.775-.375,9.62,9.62,0,0,0-1.026-.27q-.508-.109-.884-.219a2.538,2.538,0,0,1-.616-.261,1,1,0,0,1-.354-.355,1.058,1.058,0,0,1-.115-.525,1.182,1.182,0,0,1,.43-.964,2.141,2.141,0,0,1,1.37-.355,2.908,2.908,0,0,1,1.14.21,2.158,2.158,0,0,1,.8.549l.34-.56a3.432,3.432,0,0,0-1-.6,3.491,3.491,0,0,0-1.265-.215,3.608,3.608,0,0,0-1.02.135,2.507,2.507,0,0,0-.8.39,1.723,1.723,0,0,0-.525.641,2,2,0,0,0-.185.875,1.632,1.632,0,0,0,.145.725,1.373,1.373,0,0,0,.435.5,2.656,2.656,0,0,0,.71.35q.42.14.98.27c.353.079.664.159.93.239a2.839,2.839,0,0,1,.67.286,1.158,1.158,0,0,1,.405.389,1.066,1.066,0,0,1,.135.555,1.023,1.023,0,0,1-.475.925,2.438,2.438,0,0,1-1.325.305,3.994,3.994,0,0,1-.78-.074,3.827,3.827,0,0,1-.695-.211,3.3,3.3,0,0,1-.59-.315,2.694,2.694,0,0,1-.455-.38l-.35.57a4.232,4.232,0,0,0,2.85,1.03,4.314,4.314,0,0,0,1.03-.115,2.348,2.348,0,0,0,.81-.355,1.7,1.7,0,0,0,.53-.6,1.8,1.8,0,0,0,.19-.85,1.7,1.7,0,0,0-.17-.8A1.568,1.568,0,0,0,218.822,83.112Zm7.589-.125h3.47V82.4h-3.47v-2.56h3.981v-.62h-4.681v7.1h4.77V85.7h-4.07Zm13.91.59,1.741,2.74h-.791L239.6,83.7h-2.1v2.62h-.7v-7.1h3a1.831,1.831,0,0,1,.845.2,2.237,2.237,0,0,1,.666.509,2.35,2.35,0,0,1,.434.715,2.214,2.214,0,0,1,.155.81,2.414,2.414,0,0,1-.115.745,2.3,2.3,0,0,1-.32.641,1.943,1.943,0,0,1-.5.479A1.737,1.737,0,0,1,240.321,83.577Zm-.5-.5a1.191,1.191,0,0,0,.565-.135,1.327,1.327,0,0,0,.435-.365,1.8,1.8,0,0,0,.281-.519,1.881,1.881,0,0,0,.1-.611,1.665,1.665,0,0,0-.115-.614,1.69,1.69,0,0,0-.31-.516,1.491,1.491,0,0,0-.46-.35,1.253,1.253,0,0,0-.555-.13H237.5v3.24Zm10.851,2.37-2.54-6.23H247.4l2.96,7.1h.611l2.96-7.1H253.2Zm9.279.87h.7v-7.1h-.7Zm12.14-1.295a2.609,2.609,0,0,1-.545.411,2.358,2.358,0,0,1-.61.239,2.653,2.653,0,0,1-.615.076,2.3,2.3,0,0,1-1.055-.246,2.669,2.669,0,0,1-.84-.66,3.184,3.184,0,0,1-.56-.955,3.147,3.147,0,0,1-.2-1.13,3.447,3.447,0,0,1,.17-1.065,2.933,2.933,0,0,1,.5-.944,2.6,2.6,0,0,1,.825-.681,2.376,2.376,0,0,1,1.13-.259,2.741,2.741,0,0,1,.59.065,2.208,2.208,0,0,1,.58.214,2.342,2.342,0,0,1,.525.391,2.106,2.106,0,0,1,.415.589l.55-.339a2.625,2.625,0,0,0-1-1.121,2.968,2.968,0,0,0-1.625-.43,3.155,3.155,0,0,0-1.43.315,3.358,3.358,0,0,0-1.06.816,3.542,3.542,0,0,0-.655,1.134,3.743,3.743,0,0,0,.02,2.61,3.867,3.867,0,0,0,.685,1.17,3.522,3.522,0,0,0,1.05.836,2.843,2.843,0,0,0,1.34.319,3.331,3.331,0,0,0,.835-.109,3.471,3.471,0,0,0,.805-.321,3.146,3.146,0,0,0,.69-.514,2.19,2.19,0,0,0,.48-.705l-.58-.3A2.113,2.113,0,0,1,272.091,85.022Zm7.9-2.035h3.47V82.4h-3.47v-2.56h3.981v-.62h-4.681v7.1h4.771V85.7h-4.071Zm14.42.125a2.958,2.958,0,0,0-.775-.375,9.62,9.62,0,0,0-1.026-.27q-.509-.109-.884-.219a2.538,2.538,0,0,1-.616-.261,1,1,0,0,1-.354-.355,1.058,1.058,0,0,1-.115-.525,1.182,1.182,0,0,1,.43-.964,2.136,2.136,0,0,1,1.369-.355,2.909,2.909,0,0,1,1.141.21,2.158,2.158,0,0,1,.8.549l.34-.56a3.432,3.432,0,0,0-1-.6,3.491,3.491,0,0,0-1.265-.215,3.608,3.608,0,0,0-1.02.135,2.5,2.5,0,0,0-.8.39,1.725,1.725,0,0,0-.526.641,2,2,0,0,0-.184.875,1.647,1.647,0,0,0,.144.725,1.386,1.386,0,0,0,.436.5,2.656,2.656,0,0,0,.71.35q.42.14.979.27.531.118.931.239a2.839,2.839,0,0,1,.67.286,1.167,1.167,0,0,1,.405.389,1.066,1.066,0,0,1,.135.555,1.021,1.021,0,0,1-.476.925,2.432,2.432,0,0,1-1.324.305,3.994,3.994,0,0,1-.78-.074,3.8,3.8,0,0,1-.695-.211,3.3,3.3,0,0,1-.59-.315,2.694,2.694,0,0,1-.455-.38l-.35.57a4.232,4.232,0,0,0,2.85,1.03,4.314,4.314,0,0,0,1.03-.115,2.357,2.357,0,0,0,.81-.355,1.7,1.7,0,0,0,.53-.6,1.8,1.8,0,0,0,.19-.85,1.687,1.687,0,0,0-.171-.8A1.555,1.555,0,0,0,294.411,83.112Z" fill="url(#a)"/>
</svg>
