<svg xmlns="http://www.w3.org/2000/svg" width="1638.128" height="395.748" viewBox="0 0 1638.128 395.748">
  <g>
    <path d="M379.9,110.732a2.026,2.026,0,0,1,2.3-2.3h5.622a2.144,2.144,0,0,1,2.3,2.3V214.486c0,57.243-26.577,74.363-63.633,74.363s-63.375-17.12-63.375-74.363V110.732a2.143,2.143,0,0,1,2.3-2.3h5.622a2.144,2.144,0,0,1,2.3,2.3V215c0,48.554,21.466,64.91,53.153,64.91,31.945,0,53.411-16.356,53.411-64.91Z"/>
    <path d="M447.861,278.372h93.528c1.535,0,2.558.767,2.558,2.3v4.345c0,1.533-1.023,2.3-2.558,2.3H439.94a2.148,2.148,0,0,1-2.3-2.3V110.732a2.146,2.146,0,0,1,2.3-2.3h5.622a2.145,2.145,0,0,1,2.3,2.3Z"/>
    <path d="M581.752,278.372H675.28c1.534,0,2.557.767,2.557,2.3v4.345c0,1.533-1.023,2.3-2.557,2.3H573.83a2.144,2.144,0,0,1-2.3-2.3V110.732a2.143,2.143,0,0,1,2.3-2.3h5.622a2.145,2.145,0,0,1,2.3,2.3Z"/>
    <path d="M707.213,270.706a9.282,9.282,0,0,1,8.945,9.2,8.945,8.945,0,0,1-17.89,0A9.28,9.28,0,0,1,707.213,270.706Z"/>
    <path d="M856.194,231.1H773.138L752.7,285.273a2.771,2.771,0,0,1-2.812,2.044h-5.876c-1.534,0-2.3-1.023-1.792-2.044l66.19-174.285c.512-1.534,1.277-2.555,2.554-2.555h7.156c1.277,0,2.3,1.276,2.811,2.555l66.186,174.285c.512,1.021-.511,2.044-2.041,2.044h-5.88c-1.531,0-2.042-.767-2.554-2.044Zm-79.734-8.689h76.412l-38.333-101.2Z"/>
    <path d="M1195.776,136.032a9.073,9.073,0,1,1,0-18.145,9.073,9.073,0,1,1,0,18.145Zm15.332,149.241c0,1.788-1.534,2.555-4.857,2.555-8.687,0-15.844-5.878-15.844-21.21V166.185a2.034,2.034,0,0,1,2.3-2.3h5.111a2.147,2.147,0,0,1,2.3,2.3v99.666c0,8.945,3.065,13.288,8.687,13.544a2.129,2.129,0,0,1,2.3,2.3Z"/>
    <path d="M1161.675,282.985a2.027,2.027,0,0,1,2.3,2.3v3.578c0,1.788-1.023,2.044-2.557,2.044h-80.5c-1.277,0-2.3-.511-2.3-2.044v-3.578c0-1.788,1.023-2.3,2.557-2.3Z"/>
    <g>
      <path d="M92.682,126.163V285.017a2.144,2.144,0,0,0,2.3,2.3H100.6a2.147,2.147,0,0,0,2.3-2.3V143.482Z"/>
      <g>
        <path d="M215.6,270.447V110.732a2.143,2.143,0,0,0-2.3-2.3h-5.622a2.146,2.146,0,0,0-2.3,2.3V253.054Z"/>
        <path d="M204.721,272.178l-97.476-161.19c-1.019-1.534-2.042-2.555-3.576-2.555H94.982a2.6,2.6,0,0,0-.708.126l10.146,17.193,96.357,158.754c1.023,1.788,2.3,2.811,3.834,2.811H213.3a3.03,3.03,0,0,0,.341-.029Z"/>
      </g>
    </g>
    <g>
      <path d="M1272.32,129.16c10.924-9.323,24.359-13.317,37.938-13.317,31.43,0,62.61,21.722,62.61,82.288,0,27.477-6.42,46.888-16.4,59.883l5.8,8.875c12.759-14.383,21.084-36.58,21.084-68.758,0-66.956-36.033-91.233-73.085-91.233-15.466,0-30.75,4.234-43.314,14.029Z"/>
      <path d="M1348.687,266.292c-11.011,9.551-24.647,13.615-38.429,13.615-31.691,0-62.61-21.466-62.61-81.776,0-28,6.613-47.7,16.853-60.786l-5.738-8.789c-13.047,14.488-21.594,36.969-21.594,69.575,0,66.953,36.033,90.718,73.089,90.718,15.685,0,31.187-4.261,43.851-14.252Z"/>
    </g>
    <g>
      <path d="M921.063,126.163V285.017a2.145,2.145,0,0,0,2.3,2.3h5.622a2.146,2.146,0,0,0,2.3-2.3V143.482Z"/>
      <g>
        <path d="M1043.979,270.447V110.732a2.143,2.143,0,0,0-2.3-2.3h-5.623a2.145,2.145,0,0,0-2.3,2.3V253.054Z"/>
        <path d="M1033.1,272.178l-97.476-161.19c-1.018-1.534-2.041-2.555-3.576-2.555h-8.687a2.6,2.6,0,0,0-.708.126L932.8,125.752l96.357,158.754c1.023,1.788,2.3,2.811,3.834,2.811h8.688a3.071,3.071,0,0,0,.341-.029Z"/>
      </g>
    </g>
    <g>
      <path d="M1422.53,126.163V285.017a2.145,2.145,0,0,0,2.3,2.3h5.622a2.146,2.146,0,0,0,2.3-2.3V143.482Z"/>
      <g>
        <path d="M1545.446,270.447V110.732a2.143,2.143,0,0,0-2.3-2.3h-5.622a2.145,2.145,0,0,0-2.3,2.3V253.054Z"/>
        <path d="M1534.569,272.178l-97.476-161.19c-1.019-1.534-2.041-2.555-3.576-2.555h-8.687a2.6,2.6,0,0,0-.708.126l10.146,17.193,96.357,158.754c1.023,1.788,2.3,2.811,3.834,2.811h8.687a3.069,3.069,0,0,0,.342-.029Z"/>
      </g>
    </g>
  </g>
</svg>
