<svg xmlns="http://www.w3.org/2000/svg" xmlns:xlink="http://www.w3.org/1999/xlink" width="97.754" height="97.754" viewBox="0 0 97.754 97.754">
  <defs>
    <linearGradient id="a" x1="100.794" y1="-0.466" x2="13.219" y2="82.768" gradientUnits="userSpaceOnUse">
      <stop offset="0" stop-color="#f09967"/>
      <stop offset="1" stop-color="#89a7c8"/>
    </linearGradient>
  </defs>
  <rect x="0.891" y="0.891" width="95.972" height="95.972" rx="13.546" fill="url(#a)"/>
  <path d="M91.077,27.13a.658.658,0,0,0-.658.657V80.238A10.192,10.192,0,0,1,80.238,90.419H17.516A10.192,10.192,0,0,1,7.335,80.238V78.126a.982.982,0,0,1,.742-.964c6.531-1.484,9.835-15.354,13.333-30.038,3.445-14.46,7.007-29.412,13.388-29.412,6.127,0,9.563,15.157,12.789,30.451a5.525,5.525,0,0,0,2.313,10.8c3.032,13.527,6.433,24.586,12.584,24.586,7.437,0,11.073-16.155,14.922-33.258,3.393-15.078,6.9-30.669,12.75-32.016a1.907,1.907,0,0,0,1.509-2.035A11.476,11.476,0,0,0,80.238,6.02H17.516a11.509,11.509,0,0,0-11.5,11.5v48.47a.658.658,0,0,0,1.315,0V17.517A10.193,10.193,0,0,1,17.516,7.335H80.238a10.164,10.164,0,0,1,10.12,9.053.591.591,0,0,1-.5.609c-6.654,1.533-10.1,16.822-13.738,33.009-3.567,15.846-7.255,32.232-13.639,32.232-5.218,0-8.483-10.989-11.33-23.694A5.519,5.519,0,0,0,48.9,48.03C45.423,31.519,41.991,16.4,34.8,16.4c-7.419,0-10.94,14.777-14.667,30.422C16.88,60.466,13.518,74.576,7.786,75.879A2.307,2.307,0,0,0,6.02,78.126v2.112a11.51,11.51,0,0,0,11.5,11.5H80.238a11.511,11.511,0,0,0,11.5-11.5V27.787A.658.658,0,0,0,91.077,27.13ZM53.012,53.551A4.179,4.179,0,1,1,48.8,49.34c.132,0,.257.027.386.039A4.2,4.2,0,0,1,53.012,53.551Z" fill="#fff" stroke="#fff" stroke-miterlimit="10"/>
</svg>
