<svg xmlns="http://www.w3.org/2000/svg" xmlns:xlink="http://www.w3.org/1999/xlink" width="337.572" height="86.417" viewBox="0 0 337.572 86.417">
  <defs>
    <linearGradient id="a" x1="373.323" y1="38.294" x2="20.01" y2="38.294" gradientUnits="userSpaceOnUse">
      <stop offset="0" stop-color="#f09967"/>
      <stop offset="1" stop-color="#89a7c8"/>
    </linearGradient>
  </defs>
  <path d="M94.356,2.665a1.25,1.25,0,0,0,0-2.5c-8.716,0-12.709,18.569-16.937,38.229C73.77,55.36,69.635,74.588,62.965,74.588c-5.747,0-9.529-13.434-12.75-28.06a4.726,4.726,0,0,0-1.906-8.93C44.177,17.948,40.238-.5,31.391-.5c-8.762,0-12.8,17.333-17.081,35.683C10.8,50.252,6.817,67.318.75,67.318a1.25,1.25,0,0,0,0,2.5c8.052,0,11.909-16.544,15.993-34.06C20.25,20.716,24.612,2,31.391,2c6.826,0,10.894,19.1,14.472,36.117h0l0,.018a4.729,4.729,0,0,0,1.9,8.908l0,.009c3.354,15.26,7.312,30.035,15.2,30.035,8.689,0,12.676-18.537,16.9-38.162C83.517,21.927,87.66,2.665,94.356,2.665ZM48.122,44.552l-.239-.019h0a2.226,2.226,0,0,1,.091-4.438l.222.013a2.214,2.214,0,0,1,.889,4.186A2.2,2.2,0,0,1,48.122,44.552Zm-.06-4.96Zm76.662-13.71a.959.959,0,0,1,.141.859l-8.047,33.077c-.4,1.626-.357,2.8.112,3.4a1.49,1.49,0,0,0,1.258.5.933.933,0,0,1,.781.336.952.952,0,0,1,.14.857l-.08.328a1.3,1.3,0,0,1-1.446.956,3.346,3.346,0,0,1-2.751-1.213c-.9-1.146-1.056-2.961-.463-5.4l.351-1.442c-4.154,5.342-9.9,8.462-15.786,8.462-4.129,0-7.082-1.094-8.777-3.251-1.838-2.338-2.185-5.926-1.032-10.664L95.5,26.505a1.194,1.194,0,0,1,1.2-.957h.329a.937.937,0,0,1,.779.334.96.96,0,0,1,.141.859l-6.37,26.183c-.962,3.952-.708,6.9.755,8.761,1.315,1.673,3.651,2.521,6.944,2.521,8.529,0,15.985-8.281,17.372-13.981l5.771-23.72a1.2,1.2,0,0,1,1.2-.957h.328A.936.936,0,0,1,124.724,25.882ZM332.752,59.818c-.395,1.626-.356,2.8.113,3.4a1.489,1.489,0,0,0,1.258.5.935.935,0,0,1,.78.335.956.956,0,0,1,.14.858l-.08.328a1.3,1.3,0,0,1-1.445.956,3.35,3.35,0,0,1-2.752-1.213c-.9-1.145-1.055-2.961-.463-5.4l4.613-18.96c1.049-4.312.628-7.958-1.186-10.266-1.515-1.928-3.938-2.905-7.2-2.905-5.122,0-8.976,2.906-11.308,5.345a24.145,24.145,0,0,0-5.847,10.442l-5.331,21.915a1.182,1.182,0,0,1-1.2.956h-.328a.933.933,0,0,1-.779-.334.959.959,0,0,1-.142-.858l8.088-33.241c.364-1.5.35-2.5-.044-3.063a1.855,1.855,0,0,0-1.4-.67,1.025,1.025,0,0,1-.765-.355.866.866,0,0,1-.142-.755l.1-.41c.107-.437.458-.957,1.529-.957a3.279,3.279,0,0,1,2.691,1.2c.89,1.132,1.051,2.895.481,5.241l-.423,1.74c3.107-4.561,8.27-8.6,15.162-8.6,4.2,0,7.287,1.21,9.163,3.6,2.15,2.736,2.612,6.956,1.335,12.2Zm-76.08-49.037a3.993,3.993,0,1,0,3.992,3.992A4,4,0,0,0,256.672,10.781Zm1.492,3.992a1.492,1.492,0,1,1-1.492-1.492A1.494,1.494,0,0,1,258.164,14.773ZM283.2,25.056c-10.422,0-18.523,7.721-21.67,20.655-1.757,7.222-1.174,12.963,1.684,16.6,2.206,2.807,5.706,4.291,10.121,4.291,10.422,0,18.523-7.722,21.67-20.655,1.757-7.222,1.175-12.963-1.684-16.6C291.119,26.539,287.619,25.056,283.2,25.056Zm9.355,20.655c-3.317,13.636-11.928,18.5-18.88,18.5-3.563,0-6.42-1.239-8.262-3.582-2.5-3.182-3-8.257-1.434-14.677,3.318-13.637,11.929-18.5,18.881-18.5,3.563,0,6.42,1.239,8.262,3.582C293.626,34.215,294.121,39.29,292.559,45.711ZM145.272,5.856a.959.959,0,0,1,.141.858l-12.92,53.1c-.395,1.626-.356,2.8.113,3.4a1.489,1.489,0,0,0,1.258.5.933.933,0,0,1,.78.336.953.953,0,0,1,.14.857l-.079.328a1.3,1.3,0,0,1-1.447.956,3.348,3.348,0,0,1-2.751-1.213c-.9-1.145-1.056-2.961-.463-5.4l12.92-53.1a1.182,1.182,0,0,1,1.2-.956h.328A.935.935,0,0,1,145.272,5.856Zm90.055,22.8c2.15,2.736,2.612,6.956,1.335,12.2l-4.613,18.96c-.4,1.626-.356,2.8.112,3.4a1.491,1.491,0,0,0,1.259.5.935.935,0,0,1,.78.335.959.959,0,0,1,.14.858l-.08.328a1.3,1.3,0,0,1-1.446.956,3.348,3.348,0,0,1-2.751-1.213c-.9-1.145-1.055-2.961-.463-5.4l4.613-18.96c1.049-4.312.628-7.958-1.186-10.266-1.515-1.928-3.938-2.905-7.2-2.905-5.122,0-8.977,2.906-11.308,5.345a24.135,24.135,0,0,0-5.847,10.442l-5.332,21.915a1.18,1.18,0,0,1-1.2.956h-.328a.931.931,0,0,1-.779-.334.959.959,0,0,1-.142-.858l8.087-33.241c.365-1.5.351-2.5-.043-3.063a1.855,1.855,0,0,0-1.4-.67,1.025,1.025,0,0,1-.765-.355.87.87,0,0,1-.143-.755l.1-.41c.106-.437.458-.957,1.529-.957a3.279,3.279,0,0,1,2.691,1.2c.889,1.132,1.051,2.895.481,5.241L211,33.652c3.108-4.561,8.271-8.6,15.163-8.6C230.367,25.056,233.45,26.266,235.327,28.654Zm19.564-2.772a.961.961,0,0,1,.141.859l-8.048,33.077c-.4,1.626-.356,2.8.113,3.4a1.49,1.49,0,0,0,1.258.5.939.939,0,0,1,.781.335.962.962,0,0,1,.14.858l-.08.328a1.3,1.3,0,0,1-1.446.956A3.346,3.346,0,0,1,245,64.978c-.9-1.145-1.056-2.961-.463-5.4l8.047-33.077a1.2,1.2,0,0,1,1.2-.957h.329A.937.937,0,0,1,254.891,25.882Zm-71.571-.826c-8.253,0-15.156,4.679-16.786,11.379a9.792,9.792,0,0,0-.295,4.019.979.979,0,0,0,1.118.95h.492a.888.888,0,0,0,.708-.264.963.963,0,0,0,.152-.806,8.99,8.99,0,0,1,.214-3.415c1.409-5.789,6.788-9.386,14.038-9.386,3.9,0,6.479.875,7.894,2.676s1.665,4.675.728,8.525L189.8,46.067H176.731c-9.574,0-15.259,3.415-16.9,10.15-.722,2.969-.386,5.369,1,7.133,1.7,2.158,4.865,3.252,9.421,3.252,8.088,0,13.662-5.244,16.867-9.533l-.611,2.513c-.585,2.4-.434,4.192.449,5.316a3.387,3.387,0,0,0,2.785,1.211c.483,0,1.214,0,1.426-.874l.1-.411a.862.862,0,0,0-.1-.757.847.847,0,0,0-.7-.271,1.74,1.74,0,0,1-1.405-.607c-.46-.61-.5-1.776-.11-3.371l5.072-20.847c1.119-4.6.756-8.116-1.079-10.451C191.146,26.221,187.905,25.056,183.32,25.056ZM170.6,64.206c-3.5,0-6.049-.884-7.364-2.557a5.931,5.931,0,0,1-.764-5.278c1.241-5.1,6.186-7.908,13.925-7.908h12.824l-.576,2.366C188.218,51.678,181.784,64.206,170.6,64.206Zm-20.111-.156a.953.953,0,0,1,.14.857l-.08.328a1.3,1.3,0,0,1-1.446.956,3.346,3.346,0,0,1-2.751-1.213c-.9-1.145-1.056-2.961-.463-5.4l12.92-53.1a1.181,1.181,0,0,1,1.2-.956h.328a.935.935,0,0,1,.78.335.959.959,0,0,1,.141.858l-12.92,53.1c-.4,1.626-.356,2.8.113,3.4a1.488,1.488,0,0,0,1.258.5A.933.933,0,0,1,150.484,64.05Z" fill="url(#a)"/>
</svg>
