<svg xmlns:dc="http://purl.org/dc/elements/1.1/" xmlns:cc="http://creativecommons.org/ns#" xmlns:rdf="http://www.w3.org/1999/02/22-rdf-syntax-ns#" xmlns:svg="http://www.w3.org/2000/svg" xmlns="http://www.w3.org/2000/svg" xmlns:sodipodi="http://sodipodi.sourceforge.net/DTD/sodipodi-0.dtd" xmlns:inkscape="http://www.inkscape.org/namespaces/inkscape" version="1.1" x="0px" y="0px" viewBox="0 0 100 125"><g transform="translate(0,-952.36218)"><path style="color:#000000;enable-background:accumulate;" d="m 49.999999,963.36217 c -21.53899,0 -38.999998,17.46104 -38.999998,39.00003 0,21.5389 17.461008,39 38.999998,39 21.53899,0 39,-17.4611 39,-39 0,-21.53899 -17.46101,-39.00003 -39,-39.00003 z m -7.875,20 c 0.72527,-0.0173 1.48771,0.17265 2.21875,0.59375 l 23.5,14.46875 c 1.28066,0.7902 2.15625,2.24083 2.15625,3.93753 0,1.6967 -0.87559,3.1472 -2.15625,3.9375 l -23.5,14.4687 c -2.92414,1.6844 -6.26945,-0.4618 -6.34375,-4 l 0,-28.84373 c 0.0556,-2.65372 1.9492,-4.51046 4.125,-4.5625 z" fill="#000000" stroke="none" marker="none" visibility="visible" display="inline" overflow="visible"/></g><text x="0" y="115" fill="#000000" font-size="5px" font-weight="bold" font-family="'Helvetica Neue', Helvetica, Arial-Unicode, Arial, Sans-serif">Created by Eagle Eye</text><text x="0" y="120" fill="#000000" font-size="5px" font-weight="bold" font-family="'Helvetica Neue', Helvetica, Arial-Unicode, Arial, Sans-serif">from the Noun Project</text></svg>